<svg width="150" height="40" viewBox="0 0 150 40" fill="none" xmlns="http://www.w3.org/2000/svg">
    <path d="M15 8H40V12H15V8Z" fill="#023B8F"/>
    <path d="M15 18H40V22H15V18Z" fill="#023B8F"/>
    <path d="M15 28H40V32H15V28Z" fill="#023B8F"/>
    <path d="M50 10L54 10L58 20L62 10L66 10L70 30L66 30L63 15L58 27L53 15L50 30L46 30L50 10Z" fill="#023B8F"/>
    <path d="M72 10H76V30H72V10Z" fill="#023B8F"/>
    <path d="M90 10H84V14H88C89.1046 14 90 14.8954 90 16V24C90 25.1046 89.1046 26 88 26H80V22H86V18H82C80.8954 18 80 17.1046 80 16V12C80 10.8954 80.8954 10 82 10H90Z" fill="#023B8F"/>
    <path d="M94 10H98V26H108V30H94V10Z" fill="#023B8F"/>
    <path d="M110 10H114V26H124V30H110V10Z" fill="#023B8F"/>
    <path d="M135 10H126V30H130V22H135C137.209 22 139 20.2091 139 18V14C139 11.7909 137.209 10 135 10ZM135 18H130V14H135V18Z" fill="#023B8F"/>
    <path d="M140 30L146 10H150L144 30H140Z" fill="#023B8F"/>
  </svg>