<svg viewBox="0 0 100 100" xmlns="http://www.w3.org/2000/svg">
    <!-- Definiciones para gradientes y efectos -->
    <defs>
      <linearGradient id="bgGradient" x1="0%" y1="0%" x2="100%" y2="100%">
        <stop offset="0%" stop-color="#0c2d59" />
        <stop offset="100%" stop-color="#1a508b" />
      </linearGradient>
      
      <linearGradient id="techGradient" x1="0%" y1="0%" x2="100%" y2="100%">
        <stop offset="0%" stop-color="#3498db" />
        <stop offset="100%" stop-color="#2980b9" />
      </linearGradient>
      
      <linearGradient id="innovationGradient" x1="0%" y1="0%" x2="100%" y2="100%">
        <stop offset="0%" stop-color="#f1c40f" />
        <stop offset="100%" stop-color="#e67e22" />
      </linearGradient>
      
      <linearGradient id="investmentGradient" x1="0%" y1="0%" x2="100%" y2="100%">
        <stop offset="0%" stop-color="#2ecc71" />
        <stop offset="100%" stop-color="#27ae60" />
      </linearGradient>
      
      <filter id="glow" x="-20%" y="-20%" width="140%" height="140%">
        <feGaussianBlur stdDeviation="1.5" result="blur" />
        <feComposite in="SourceGraphic" in2="blur" operator="over" />
      </filter>
    </defs>
    
    <!-- Fondo base circular -->
    <circle cx="50" cy="50" r="49" fill="url(#bgGradient)" stroke="#ffffff" stroke-width="1" />
    
    <!-- Parte inferior: Elementos de inversión (gráfico de crecimiento) -->
    <g transform="translate(50, 65) scale(0.6)" filter="url(#glow)">
      <polyline points="-40,10 -20,-5 0,5 20,-15 40,-30" stroke="url(#investmentGradient)" stroke-width="5" stroke-linecap="round" stroke-linejoin="round" fill="none" />
      <circle cx="-40" cy="10" r="4" fill="#2ecc71" />
      <circle cx="-20" cy="-5" r="4" fill="#2ecc71" />
      <circle cx="0" cy="5" r="4" fill="#2ecc71" />
      <circle cx="20" cy="-15" r="4" fill="#2ecc71" />
      <circle cx="40" cy="-30" r="4" fill="#2ecc71" />
    </g>
    
    <!-- Parte central: Elementos de tecnología (estructura hexagonal) -->
    <g transform="translate(50, 50) scale(0.45)" filter="url(#glow)">
      <!-- Hexágono central -->
      <polygon points="0,-20 17.3,-10 17.3,10 0,20 -17.3,10 -17.3,-10" fill="url(#techGradient)" stroke="#ffffff" stroke-width="1.5" />
      
      <!-- Conexiones -->
      <line x1="0" y1="-20" x2="0" y2="-40" stroke="#ffffff" stroke-width="2" />
      <line x1="17.3" y1="-10" x2="34.6" y2="-20" stroke="#ffffff" stroke-width="2" />
      <line x1="17.3" y1="10" x2="34.6" y2="20" stroke="#ffffff" stroke-width="2" />
      <line x1="0" y1="20" x2="0" y2="40" stroke="#ffffff" stroke-width="2" />
      <line x1="-17.3" y1="10" x2="-34.6" y2="20" stroke="#ffffff" stroke-width="2" />
      <line x1="-17.3" y1="-10" x2="-34.6" y2="-20" stroke="#ffffff" stroke-width="2" />
      
      <!-- Puntos de conexión -->
      <circle cx="0" cy="-40" r="4" fill="#ffffff" />
      <circle cx="34.6" cy="-20" r="4" fill="#ffffff" />
      <circle cx="34.6" cy="20" r="4" fill="#ffffff" />
      <circle cx="0" cy="40" r="4" fill="#ffffff" />
      <circle cx="-34.6" cy="20" r="4" fill="#ffffff" />
      <circle cx="-34.6" cy="-20" r="4" fill="#ffffff" />
    </g>
    
    <!-- Parte superior: Elemento de innovación (bombilla) -->
    <g transform="translate(50, 27)" filter="url(#glow)">
      <!-- Bombilla -->
      <path d="M0,12 C-9,12 -15,3 -15,-6 C-15,-18 -9,-24 0,-24 C9,-24 15,-18 15,-6 C15,3 9,12 0,12 Z" fill="url(#innovationGradient)" stroke="#ffffff" stroke-width="0.75" />
      <path d="M-4.5,12 L-4.5,18 C-4.5,21 4.5,21 4.5,18 L4.5,12" fill="url(#innovationGradient)" stroke="#ffffff" stroke-width="0.75" />
      
      <!-- Detalles bombilla -->
      <line x1="-4.5" y1="14" x2="4.5" y2="14" stroke="#ffffff" stroke-width="0.75" />
      <line x1="-4.5" y1="16" x2="4.5" y2="16" stroke="#ffffff" stroke-width="0.75" />
      <line x1="-4.5" y1="18" x2="4.5" y2="18" stroke="#ffffff" stroke-width="0.75" />
      
      <!-- Rayos de luz -->
      <line x1="0" y1="-28" x2="0" y2="-24" stroke="#f1c40f" stroke-width="1.5" />
      <line x1="7" y1="-21" x2="11" y2="-25" stroke="#f1c40f" stroke-width="1.5" />
      <line x1="-7" y1="-21" x2="-11" y2="-25" stroke="#f1c40f" stroke-width="1.5" />
    </g>
    
    <!-- Círculo exterior sutil para definir mejor el borde -->
    <circle cx="50" cy="50" r="49" fill="none" stroke="#ffffff" stroke-width="1" opacity="0.6" />
  </svg>